HIERARCHY
ROOT hip
{
	OFFSET 0.000000 0.000000 0.000000 
	CHANNELS 6 Xposition Yposition Zposition Xrotation Zrotation Yrotation
	JOINT abdomen
	{
		OFFSET 0.000000 3.402643 0.000000 
		CHANNELS 3 Xrotation Zrotation Yrotation
		JOINT chest
		{
			OFFSET 0.000000 8.438565 -0.680529 
			CHANNELS 3 Xrotation Zrotation Yrotation
			JOINT neck
			{
				OFFSET 0.000000 10.207942 -0.272212 
				CHANNELS 3 Xrotation Zrotation Yrotation
				JOINT head
				{
					OFFSET 0.000000 3.130431 0.000000 
					CHANNELS 3 Xrotation Zrotation Yrotation
					End Site
					{
						OFFSET 0.000000 3.130435 0.000000 
					}
				}
			}
			JOINT lCollar
			{
				OFFSET 3.470700 6.669187 -0.816635 
				CHANNELS 3 Yrotation Zrotation Xrotation
				JOINT lShldr
				{
					OFFSET 3.198488 0.000000 0.000000 
					CHANNELS 3 Zrotation Yrotation Xrotation
					JOINT lForeArm
					{
						OFFSET 10.139888 0.000000 0.000000 
						CHANNELS 3 Yrotation Zrotation Xrotation
						JOINT lHand
						{
							OFFSET 8.370511 0.000000 0.000000 
							CHANNELS 3 Zrotation Yrotation Xrotation
							End Site
							{
								OFFSET 4.083176 0.000000 0.000000 
							}
						}
					}
				}
			}
			JOINT rCollar
			{
				OFFSET -3.470700 6.669187 -0.816635 
				CHANNELS 3 Yrotation Zrotation Xrotation
				JOINT rShldr
				{
					OFFSET -3.198488 0.000000 0.000000 
					CHANNELS 3 Zrotation Yrotation Xrotation
					JOINT rForeArm
					{
						OFFSET -10.139888 0.000000 0.000000 
						CHANNELS 3 Yrotation Zrotation Xrotation
						JOINT rHand
						{
							OFFSET -8.370511 0.000000 0.000000 
							CHANNELS 3 Zrotation Yrotation Xrotation
							End Site
							{
								OFFSET -4.083176 0.000000 0.000000 
							}
						}
					}
				}
			}
		}
	}
	JOINT lThigh
	{
		OFFSET 5.308129 -1.633274 1.361059 
		CHANNELS 3 Xrotation Zrotation Yrotation
		JOINT lShin
		{
			OFFSET -2.041588 -20.007561 0.000000 
			CHANNELS 3 Xrotation Zrotation Yrotation
			JOINT lFoot
			{
				OFFSET 0.000000 -19.190928 -1.224953 
				CHANNELS 3 Xrotation Yrotation Zrotation
				End Site
				{
					OFFSET 0.000000 -2.449906 4.627600 
				}
			}
		}
	}
	JOINT rThigh
	{
		OFFSET -5.308129 -1.633274 1.361059 
		CHANNELS 3 Xrotation Zrotation Yrotation
		JOINT rShin
		{
			OFFSET 2.041588 -20.007561 0.000000 
			CHANNELS 3 Xrotation Zrotation Yrotation
			JOINT rFoot
			{
				OFFSET 0.000000 -19.190928 -1.224953 
				CHANNELS 3 Xrotation Yrotation Zrotation
				End Site
				{
					OFFSET 0.000000 -2.449906 4.627600 
				}
			}
		}
	}
}
MOTION
Frames: 18
Frame Time: 0.016667
-58.562241 46.214268 40.138851 14.328767 -2.675079 -5.064462 62.063183 -0.402298 1.292787 9.324957 -0.712890 1.083977 -15.058837 -0.275633 0.071333 -21.538504 -8.569994 17.802185 -18.773897 3.566919 0.186589 -15.796812 -30.090843 -13.492200 -67.341721 5.000000 -15.797886 -1.326137 -19.920828 25.575205 18.544003 -10.383850 0.544950 35.432880 56.210114 1.134537 94.205894 -5.000000 1.483706 -0.366863 -21.712973 33.859947 -62.848804 30.457825 -2.022936 84.090164 -0.506796 -8.262395 -10.207320 8.440254 -2.584637 -51.513218 3.300703 -6.003944 59.787014 7.387549 14.113756 -22.666569 -18.917669 -10.036648 
-59.030968 46.154350 40.622372 14.176250 -3.100838 -5.516099 62.103016 -0.249712 1.582611 9.372343 -0.820308 1.210918 -15.010128 -0.322451 0.088293 -21.569143 -8.356276 17.989424 -18.714518 3.501784 0.173835 -15.684310 -30.128265 -13.556352 -67.407402 5.000000 -15.715378 -1.438249 -19.902603 25.685963 18.641565 -10.374099 0.544446 35.455456 56.429440 1.257393 94.229202 -5.000000 1.506740 -0.635337 -21.473785 34.153503 -64.369568 28.806381 -2.236144 82.582222 -0.829482 -9.421292 -10.005895 7.919934 -3.143466 -50.535538 4.198629 -6.992943 59.896641 7.466242 14.275979 -23.500185 -18.128771 -11.063481 
-59.499695 46.094421 41.105881 14.030890 -3.535531 -5.958789 62.143337 -0.113665 1.861791 9.409635 -0.927724 1.337855 -14.961437 -0.369269 0.105252 -21.597006 -8.143357 18.167267 -18.665459 3.423755 0.169806 -15.565724 -30.168188 -13.638297 -67.463943 5.000000 -15.639115 -1.556111 -19.880091 25.787537 18.748894 -10.364346 0.543942 35.447903 56.654049 1.352612 94.241760 -5.000000 1.522020 -0.908818 -21.232426 34.463978 -65.847328 27.128027 -2.359540 81.094124 -1.150674 -10.559975 -9.839351 7.478062 -3.669717 -49.591850 5.116426 -7.996271 60.026215 7.523306 14.468431 -24.315620 -17.367172 -12.075109 
-59.957214 46.005989 41.601257 13.869509 -3.978405 -6.481043 62.165295 -0.011811 2.175789 9.456478 -1.044902 1.464785 -14.883332 -0.378925 0.106713 -21.660431 -7.948871 18.356361 -18.635937 3.345730 0.165778 -15.419869 -30.176329 -13.722878 -67.571342 5.000000 -15.543445 -1.674817 -19.808323 25.932114 18.835852 -10.266824 0.538900 35.458416 56.862091 1.524104 94.296509 -5.000000 1.555055 -1.172915 -21.022116 34.689091 -67.089371 25.410143 -2.540119 79.121338 -1.630300 -11.388708 -9.669023 7.071383 -4.263196 -48.669552 6.093399 -8.988139 60.229584 7.514915 14.635004 -25.134523 -16.617571 -13.091555 
-60.403526 45.889042 42.108486 13.703205 -4.429073 -7.072605 62.177555 0.011420 2.538551 9.512895 -1.171844 1.601475 -14.785640 -0.359613 0.103791 -21.751057 -7.772337 18.564960 -18.625950 3.267707 0.161750 -15.263847 -30.152382 -13.792285 -67.724098 5.000000 -15.436034 -1.791353 -19.696432 26.099876 18.921907 -10.071780 0.528813 35.463017 57.070759 1.755320 94.403900 -5.000000 1.612951 -1.448723 -20.837488 34.863522 -68.085869 23.652554 -2.766971 76.690506 -2.227506 -11.871572 -9.593361 6.744114 -4.921278 -47.748055 7.127959 -9.908631 60.542065 7.523367 14.767764 -25.938400 -15.911771 -14.118752 
-60.849834 45.772099 42.615719 13.546286 -4.878115 -7.665361 62.170757 0.038569 2.878644 9.568786 -1.298779 1.738375 -14.687892 -0.341763 0.091214 -21.835951 -7.587300 18.764084 -18.616486 3.186568 0.166963 -15.104381 -30.122261 -13.883521 -67.873024 5.000000 -15.322850 -1.908487 -19.571392 26.259394 19.008085 -9.886486 0.519225 35.481606 57.273415 1.998913 94.500725 -5.000000 1.665396 -1.711104 -20.657667 35.024536 -69.063622 21.872442 -2.933552 74.286316 -2.829384 -12.299087 -9.481219 6.456718 -5.593417 -46.840542 8.182759 -10.857952 60.836483 7.493982 14.905912 -26.755035 -15.183963 -15.114138 
-61.299992 45.601109 43.150864 13.362288 -5.257341 -8.287687 62.111679 -0.049517 3.223064 9.644685 -1.367121 1.865306 -14.600016 -0.351418 0.092675 -21.962509 -7.421926 18.942770 -18.595976 3.014136 0.148659 -14.844481 -30.087708 -13.962716 -68.045135 5.000000 -15.178757 -2.015563 -19.444536 26.453344 19.092913 -9.545159 0.501547 35.440624 57.397179 2.298271 94.670525 -5.000000 1.733120 -1.915738 -20.481163 35.178734 -69.470261 20.136280 -2.618399 71.231796 -3.464157 -12.077428 -9.342397 6.476448 -6.085961 -46.043396 9.267402 -11.647095 61.430954 7.378089 15.083349 -27.540323 -14.737040 -15.918475 
-61.750156 45.430119 43.686001 13.179913 -5.654037 -8.911253 62.043354 -0.146325 3.584528 9.720313 -1.445224 1.982466 -14.512125 -0.351418 0.092675 -22.091267 -7.266044 19.124134 -18.576010 2.838586 0.139595 -14.598131 -30.046818 -14.045964 -68.200890 5.000000 -15.042242 -2.118341 -19.317572 26.634588 19.168171 -9.213583 0.482794 35.414810 57.516586 2.609043 94.829750 -5.000000 1.793135 -2.109840 -20.296429 35.321411 -69.896103 18.416731 -2.307727 68.210373 -4.107085 -11.777474 -9.167224 6.448365 -6.602391 -45.241753 10.350700 -12.390872 62.015694 7.269508 15.224174 -28.353254 -14.198940 -16.672426 
-62.212337 45.235531 44.234276 12.971459 -6.001743 -9.467161 62.023178 -0.233655 3.904344 9.786484 -1.503796 2.080096 -14.443751 -0.341763 0.091214 -22.178385 -7.121324 19.265659 -18.576126 2.698939 0.141791 -14.353441 -30.004444 -14.144137 -68.364517 5.000000 -14.893500 -2.197205 -19.190336 26.810335 19.224321 -8.921014 0.467662 35.380253 57.613888 2.855718 94.988312 -5.000000 1.863005 -2.320801 -20.134535 35.461567 -69.978645 16.708887 -1.401037 64.971016 -4.634455 -11.269241 -8.791254 6.491564 -7.058551 -44.465317 11.424451 -13.101853 62.760231 7.083901 15.397888 -29.245911 -13.818662 -17.321507 
-62.686546 45.017357 44.795704 12.738248 -6.330035 -9.944699 62.052650 -0.303467 4.210468 9.832739 -1.562362 2.187749 -14.404659 -0.322451 0.088293 -22.232788 -6.988099 19.357697 -18.585634 2.591660 0.136252 -14.110462 -29.960361 -14.262099 -68.526810 5.000000 -14.736603 -2.249851 -19.088404 26.996784 19.251492 -8.657702 0.454034 35.385487 57.681946 3.091889 95.155830 -5.000000 1.945105 -2.538231 -19.974949 35.584461 -69.758263 15.037348 0.062422 61.538311 -5.034538 -10.455112 -8.203438 6.472490 -7.507135 -43.730450 12.460609 -13.753744 63.624256 6.840293 15.570709 -30.293716 -13.544781 -17.828400 
-63.160763 44.799179 45.357124 12.509474 -6.657133 -10.412813 62.062977 -0.371645 4.511241 9.878853 -1.620924 2.285376 -14.355787 -0.293484 0.083910 -22.288868 -6.864625 19.441347 -18.595177 2.494134 0.131215 -13.887110 -29.907301 -14.361356 -68.682442 5.000000 -14.589878 -2.293799 -18.978094 27.168736 19.278799 -8.404141 0.440901 35.359901 57.751080 3.283013 95.323509 -5.000000 2.030042 -2.746501 -19.820457 35.706753 -69.591736 13.348108 1.471872 58.087234 -5.442811 -9.623287 -7.595305 6.478305 -7.965415 -42.983440 13.514808 -14.397064 64.458206 6.606447 15.691473 -31.310116 -13.274422 -18.339911 
-63.668785 44.542839 45.947937 12.272525 -6.861686 -10.722571 62.118298 -0.442561 4.737174 9.896538 -1.669730 2.353715 -14.365490 -0.285289 0.072794 -22.380144 -6.808146 19.468088 -18.584749 2.370463 0.115419 -13.604316 -29.859005 -14.486553 -68.819969 5.000000 -14.462048 -2.322187 -18.959814 27.309767 19.256237 -8.183059 0.418762 35.256508 57.773621 3.391787 95.489609 -5.000000 2.088993 -2.940491 -19.715921 35.844635 -68.695419 11.776022 4.209021 54.537132 -5.658442 -8.781000 -6.926332 5.921229 -9.092899 -42.256332 14.412661 -14.991770 65.496925 6.332446 15.868360 -32.583851 -12.981322 -18.644630 
-64.176804 44.286503 46.538750 12.028069 -7.065618 -11.032474 62.155193 -0.500357 4.969035 9.914001 -1.728298 2.412285 -14.375233 -0.265978 0.069872 -22.474648 -6.760890 19.496006 -18.574759 2.253430 0.109374 -13.338598 -29.810442 -14.598775 -68.966240 5.000000 -14.328593 -2.345768 -18.932909 27.451965 19.244848 -7.958753 0.407162 35.158886 57.802086 3.496482 95.665398 -5.000000 2.149661 -3.118611 -19.617554 35.957310 -67.907997 10.165495 6.885173 50.983749 -5.833550 -7.904549 -6.235758 5.385985 -10.188836 -41.554665 15.320544 -15.553973 66.563400 6.087100 16.014256 -33.827679 -12.708050 -18.955065 
-64.706146 44.011925 47.152416 11.827652 -7.240433 -11.332820 62.160881 -0.590234 5.191379 9.921149 -1.796625 2.500448 -14.414307 -0.275634 0.071333 -22.613264 -6.687646 19.482893 -18.554930 2.087633 0.100808 -13.022691 -29.770735 -14.702629 -69.103271 5.000000 -14.205707 -2.306414 -18.962704 27.597338 19.223877 -7.753949 0.396566 35.029926 57.792992 3.544496 95.840164 -5.000000 2.194279 -3.303232 -19.517590 36.091408 -66.876892 8.659833 9.726027 47.705475 -5.986820 -7.209466 -5.879832 4.484056 -11.792392 -40.791325 16.199120 -16.149403 67.597939 5.823368 16.186491 -35.304123 -12.328962 -19.301825 
-65.256821 43.719116 47.788937 11.660233 -7.376418 -11.632029 62.118370 -0.699629 5.449135 9.937284 -1.884470 2.607836 -14.473001 -0.312795 0.086832 -22.802717 -6.606771 19.429920 -18.525301 1.882824 0.089904 -12.678268 -29.745064 -14.793528 -69.240219 5.000000 -14.087307 -2.215146 -19.054178 27.738430 19.203012 -7.558898 0.386470 34.892292 57.744686 3.532757 96.044006 -5.000000 2.228773 -3.486239 -19.404074 36.214321 -65.661133 7.245553 12.690898 44.704243 -6.122402 -6.648618 -5.714833 3.255076 -13.869275 -40.012123 17.039118 -16.774446 68.659317 5.540627 16.391233 -36.929451 -11.814855 -19.634478 
-65.807487 43.426304 48.425453 11.497611 -7.521189 -11.940983 62.084774 -0.805446 5.683868 9.943807 -1.972316 2.705456 -14.531717 -0.349957 0.102331 -22.982548 -6.525837 19.378115 -18.495707 1.678014 0.079355 -12.337203 -29.725969 -14.872830 -69.364563 5.000000 -13.984033 -2.103681 -19.143032 27.858820 19.183372 -7.360638 0.385516 34.736862 57.697464 3.521188 96.237595 -5.000000 2.262172 -3.657736 -19.287403 36.347630 -64.485123 5.788545 15.622991 41.714603 -6.259190 -6.117288 -5.717186 1.968398 -15.977448 -39.264046 17.899151 -17.391365 69.728348 5.285987 16.592356 -38.530491 -11.356040 -20.009739 
-66.407249 43.110928 49.112312 11.402014 -7.633944 -12.348027 61.989197 -1.029180 6.038110 9.958830 -2.099206 2.822943 -14.649142 -0.435398 0.125133 -23.122156 -6.476343 19.228268 -18.446491 1.356170 0.062776 -11.851319 -29.737978 -14.971283 -69.413345 5.000000 -13.911892 -1.960299 -19.333677 27.937416 19.181042 -7.188303 0.367275 34.532761 57.618439 3.436896 96.448494 -5.000000 2.337484 -3.867019 -19.155497 36.422909 -63.261082 4.736557 17.356258 39.991074 -6.382679 -5.865418 -6.455762 0.797612 -17.750294 -38.296326 18.670670 -18.223778 70.711754 5.052611 16.962767 -40.313923 -10.638905 -20.541456 
-67.006996 42.795559 49.799168 11.310287 -7.755463 -12.756421 61.892673 -1.260317 6.399062 9.983358 -2.226089 2.949845 -14.776383 -0.520838 0.147936 -23.263142 -6.426327 19.089231 -18.397369 1.034326 0.046195 -11.365279 -29.750460 -15.070896 -69.462204 5.000000 -13.841946 -1.817505 -19.524891 28.018267 19.179934 -7.012760 0.358178 34.329441 57.539658 3.353092 96.649139 -5.000000 2.405124 -4.069845 -19.015526 36.499191 -62.051628 3.639038 19.061790 38.256744 -6.483135 -5.601806 -7.263054 -0.298812 -19.525475 -37.332798 19.442745 -19.025272 71.703789 4.848155 17.330915 -42.099197 -9.856895 -21.045990 
